<svg width="24" height="24" viewBox="0 0 24 24" fill="none" xmlns="http://www.w3.org/2000/svg">
<g clip-path="url(#clip0)">
<path d="M12.0016 0C8.57303 0 5.77032 2.80271 5.77032 6.2313C5.77032 9.6599 8.57303 12.4626 12.0016 12.4626C15.4302 12.4626 18.2329 9.6599 18.2329 6.2313C18.2329 2.80271 15.4302 0 12.0016 0Z" fill="white"/>
<path d="M22.6955 17.4422C22.5323 17.034 22.3146 16.6531 22.0697 16.2994C20.818 14.449 18.8861 13.2245 16.7092 12.9252C16.4371 12.898 16.1378 12.9524 15.9201 13.1157C14.7772 13.9592 13.4167 14.3946 12.0017 14.3946C10.5867 14.3946 9.22616 13.9592 8.0833 13.1157C7.86559 12.9524 7.56627 12.8708 7.29418 12.9252C5.11731 13.2245 3.15814 14.449 1.93366 16.2994C1.68877 16.6531 1.47106 17.0613 1.30783 17.4422C1.22622 17.6055 1.2534 17.796 1.33502 17.9592C1.55273 18.3402 1.82481 18.7212 2.06971 19.0477C2.45064 19.5647 2.85882 20.0273 3.32142 20.4626C3.70236 20.8436 4.13773 21.1973 4.57314 21.5511C6.72278 23.1565 9.30783 24 11.9745 24C14.6412 24 17.2262 23.1565 19.3759 21.5511C19.8112 21.2246 20.2466 20.8436 20.6276 20.4626C21.0629 20.0273 21.4983 19.5647 21.8793 19.0477C22.1514 18.6939 22.3963 18.3402 22.614 17.9592C22.75 17.796 22.7772 17.6054 22.6955 17.4422Z" fill="white"/>
</g>
<defs>
<clipPath id="clip0">
<rect width="24" height="24" fill="white"/>
</clipPath>
</defs>
</svg>
