<svg width="64" height="64" viewBox="0 0 64 64" fill="none" xmlns="http://www.w3.org/2000/svg">
<circle cx="32" cy="32" r="32" fill="#4EEAD3"/>
<g clip-path="url(#clip0)">
<path d="M45.0532 19.4964L46.9323 17.6173C47.3285 17.2211 47.3285 16.5786 46.9323 16.1824C46.5361 15.7862 45.8936 15.7862 45.4974 16.1824L43.1935 18.4863C42.0672 18.4667 39.2621 18.5819 36.9815 20.0249C34.6665 19.1713 31.9518 19.0665 29.2292 19.7411C26.1089 20.5144 23.1629 22.2198 20.7096 24.6731C18.2563 27.1265 16.5509 30.0725 15.7776 33.1928C15.0865 35.9816 15.2128 38.7623 16.1246 41.1135C14.5954 42.7409 14.6257 45.309 16.2157 46.8991C17.0262 47.7095 18.0908 48.1148 19.1555 48.1148C20.1794 48.1148 21.2034 47.7399 22.0012 46.9902C24.3524 47.9019 27.1331 48.0283 29.922 47.3372C33.0423 46.5639 35.9883 44.8584 38.4416 42.4051C40.2033 40.6435 41.5792 38.6278 42.5014 36.476C42.7515 36.7174 42.9169 36.8596 42.9506 36.8881C43.1399 37.0488 43.3735 37.1291 43.6071 37.1291C43.8406 37.1291 44.0742 37.0488 44.2636 36.8881C44.4569 36.724 49 32.8117 49 27.8166C49 24.0402 46.4039 20.8833 45.0532 19.4964ZM37.1753 22.4466C38.7446 20.8773 41.2605 20.5682 42.6057 20.5224C42.5624 21.8656 42.2562 24.3732 40.679 25.9504C39.1096 27.5197 36.5938 27.8288 35.2486 27.8747C35.2919 26.5314 35.5981 24.0239 37.1753 22.4466ZM37.0067 40.9701C32.6423 45.3346 26.5372 46.9304 22.1609 44.851C21.7149 44.6393 21.181 44.7791 20.8963 45.1826C20.8242 45.285 20.7447 45.3796 20.6603 45.4641C19.8305 46.2938 18.4804 46.2939 17.6507 45.4641C16.821 44.6343 16.8209 43.2841 17.6507 42.4544C17.7352 42.37 17.8298 42.2905 17.9321 42.2184C18.3358 41.9338 18.4757 41.3999 18.2638 40.9538C16.1844 36.5772 17.7802 30.4724 22.1446 26.108C25.2283 23.0244 29.1798 21.3231 32.7776 21.3231C33.6139 21.3231 34.4312 21.4153 35.214 21.6033C32.9032 24.5134 33.2203 28.7692 33.2361 28.9613C33.2767 29.4562 33.6695 29.8491 34.1645 29.8897C34.2085 29.8933 34.4664 29.9128 34.8728 29.9128C35.6493 29.9128 36.968 29.8409 38.3733 29.4521C38.7865 31.6021 39.9355 33.465 40.9799 34.7893C40.1916 36.9855 38.8447 39.1322 37.0067 40.9701ZM43.6071 34.7079C42.579 33.6446 40.6714 31.3553 40.3055 28.6989C40.9491 28.3611 41.5672 27.932 42.1139 27.3853C43.6929 25.8062 44.2985 23.6344 44.5207 21.9588C45.6488 23.3533 46.9706 25.4844 46.9706 27.8166C46.9707 30.841 44.7469 33.5289 43.6071 34.7079Z" fill="white"/>
<path d="M26.8779 38.6445C26.3472 38.6445 25.8387 39.1111 25.8633 39.6591C25.8879 40.2089 26.3091 40.6738 26.8779 40.6738C27.4086 40.6738 27.9171 40.2071 27.8925 39.6591C27.8679 39.1094 27.4467 38.6445 26.8779 38.6445Z" fill="white"/>
<path d="M24.6767 41.9875C24.146 41.9875 23.6375 42.4542 23.662 43.0022C23.6867 43.5519 24.1079 44.0168 24.6767 44.0168C25.2074 44.0168 25.7159 43.5502 25.6913 43.0022C25.6667 42.4524 25.2455 41.9875 24.6767 41.9875Z" fill="white"/>
<path d="M29.0791 41.9875C28.5483 41.9875 28.0399 42.4542 28.0644 43.0022C28.089 43.5519 28.5103 44.0168 29.0791 44.0168C29.6098 44.0168 30.1183 43.5502 30.0937 43.0022C30.0691 42.4524 29.6479 41.9875 29.0791 41.9875Z" fill="white"/>
</g>
<defs>
<clipPath id="clip0">
<rect width="34" height="34" fill="white" transform="translate(15 15)"/>
</clipPath>
</defs>
</svg>
