<svg width="64" height="64" viewBox="0 0 64 64" fill="none" xmlns="http://www.w3.org/2000/svg">
<circle cx="32" cy="32" r="32" fill="#FFBBC8"/>
<path d="M36.25 25.625C35.6448 25.6237 35.0413 25.6902 34.4509 25.8233C35.2309 24.2306 36.4627 22.9027 37.9925 22.0054C38.0824 21.968 38.1637 21.9124 38.2311 21.8421C38.2986 21.7719 38.3509 21.6885 38.3846 21.5971C38.4184 21.5057 38.433 21.4084 38.4274 21.3111C38.4219 21.2139 38.3963 21.1188 38.3524 21.0319C38.3084 20.945 38.247 20.8681 38.172 20.8059C38.0969 20.7438 38.0099 20.6978 37.9163 20.6709C37.8227 20.6439 37.7246 20.6365 37.628 20.6492C37.5314 20.6619 37.4385 20.6944 37.355 20.7446C36.8212 21.0143 36.3218 21.3472 35.8675 21.7363C35.3311 20.5923 34.4859 19.6209 33.4271 18.9313C32.3684 18.2418 31.1382 17.8615 29.875 17.8333C27.06 17.8856 24.3614 18.9665 22.2888 20.8721C22.2071 20.9546 22.147 21.0558 22.1136 21.167C22.0803 21.2781 22.0747 21.3958 22.0975 21.5096C22.1196 21.6234 22.1692 21.7301 22.242 21.8202C22.3149 21.9104 22.4088 21.9813 22.5154 22.0267C22.7209 22.0833 27.6367 24.2083 30.5834 24.2083C31.7116 24.2045 32.8374 24.1026 33.9479 23.9038C33.4894 24.5719 33.0979 25.2837 32.7792 26.0288C32.0737 25.7772 31.3322 25.6409 30.5834 25.625C27.8917 25.625 22.7917 27.5517 22.7917 34.8333C22.7917 40.7904 27.1479 45.4583 32.7084 45.4583C38.0563 45.4583 44.0417 40.9108 44.0417 34.8333C44.0417 30.2575 41.3642 25.625 36.25 25.625ZM24.2084 21.1625C25.8554 19.957 27.8343 19.2892 29.875 19.25C30.8661 19.2717 31.8312 19.5714 32.6603 20.1149C33.4894 20.6584 34.149 21.4239 34.5642 22.3242C33.2595 22.632 31.9238 22.7889 30.5834 22.7917C28.7063 22.7917 25.7596 21.7717 24.2084 21.1625ZM32.7084 44.0417C27.9413 44.0417 24.2084 39.9971 24.2084 34.8333C24.2084 28.6708 28.3804 27.0417 30.5834 27.0417C30.922 27.0455 31.2592 27.0859 31.5892 27.1621C30.579 28.014 29.7732 29.082 29.2313 30.2872C28.6893 31.4924 28.4252 32.804 28.4584 34.125C28.4029 36.2468 28.9348 38.3427 29.9954 40.1813C30.1062 40.3187 30.2642 40.4099 30.4386 40.4369C30.613 40.4639 30.7912 40.4249 30.9383 40.3274C31.0855 40.2299 31.1909 40.081 31.234 39.9098C31.2771 39.7387 31.2547 39.5576 31.1713 39.4021C30.2729 37.7915 29.8252 35.9685 29.875 34.125C29.875 30.7108 31.8725 27.0417 36.25 27.0417C39.3171 27.0417 42.625 29.4783 42.625 34.8333C42.625 40.1883 37.3904 44.0417 32.7084 44.0417Z" fill="white"/>
</svg>
