<svg width="64" height="64" viewBox="0 0 64 64" fill="none" xmlns="http://www.w3.org/2000/svg">
<circle cx="32" cy="32" r="32" fill="#7070E8"/>
<g clip-path="url(#clip0)">
<path d="M47.2885 35.5987C46.2378 34.3914 44.7703 33.7266 43.1562 33.7266C42.3584 33.7266 41.6018 33.8873 40.901 34.204C40.6836 31.9419 39.9083 29.735 38.6257 27.7542C37.6489 26.2457 36.391 24.8898 34.9158 23.7425C36.0172 23.4808 37.2187 22.988 38.1384 22.0683C40.3585 19.8483 40.0241 16.0819 40.0088 15.9226C39.9631 15.4479 39.5874 15.0721 39.1127 15.0265C38.9535 15.0111 35.1872 14.6767 32.967 16.8969C31.6675 18.1963 31.2147 20.0543 31.0642 21.3968L28.4815 20.0298C27.9954 19.7724 27.3925 19.958 27.1352 20.4441C26.8779 20.9304 27.0634 21.5331 27.5496 21.7905L29.9908 23.0827C28.0906 24.3767 26.4939 25.9986 25.3177 27.8423C24.0693 29.7994 23.3133 31.9759 23.0988 34.2039C22.3982 33.8873 21.6416 33.7266 20.8438 33.7266C19.2297 33.7266 17.7622 34.3914 16.7115 35.5987C15.6352 36.8353 15.0664 38.5417 15.0664 40.5332C15.0664 42.634 15.9701 44.7521 17.5459 46.3446C19.2404 48.057 21.5437 49 24.0312 49C26.5188 49 28.8221 48.057 30.5166 46.3446C31.1108 45.744 31.6093 45.0688 32 44.3479C32.3907 45.0688 32.8892 45.744 33.4834 46.3446C35.1779 48.057 37.4811 49 39.9688 49C42.4564 49 44.7596 48.057 46.4541 46.3446C48.0299 44.7521 48.9336 42.634 48.9336 40.5332C48.9336 38.5417 48.3648 36.8353 47.2885 35.5987ZM34.3757 18.3056C35.3952 17.286 37.0274 17.0458 38.0337 17.0016C37.9894 18.0086 37.7491 19.6403 36.7297 20.6596C35.7104 21.6789 34.0494 21.9512 33.0108 22.0169C33.0829 20.9792 33.363 19.3183 34.3757 18.3056ZM31.9999 24.1659C35.8769 26.4543 38.4109 30.1443 38.8897 34.1404C38.2304 33.8658 37.5237 33.7266 36.7812 33.7266C35.1672 33.7266 33.6997 34.3914 32.649 35.5987C32.4061 35.8778 32.1905 36.182 32 36.5069C31.8095 36.182 31.5939 35.8778 31.351 35.5987C30.3003 34.3914 28.8328 33.7266 27.2188 33.7266C26.4753 33.7266 25.7675 33.8662 25.1074 34.1415C25.5728 30.1108 28.067 26.4783 31.9999 24.1659ZM24.0312 47.0078C19.8603 47.0078 17.0586 43.66 17.0586 40.5332C17.0586 37.6536 18.5798 35.7188 20.8438 35.7188C21.4407 35.7188 21.9976 35.8565 22.4989 36.1282C23.4442 36.6405 24.6184 36.6404 25.5636 36.1282C26.0649 35.8565 26.6218 35.7188 27.2188 35.7188C29.4827 35.7188 31.0039 37.6536 31.0039 40.5332C31.0039 43.66 28.2022 47.0078 24.0312 47.0078ZM39.9688 47.0078C35.7978 47.0078 32.9961 43.66 32.9961 40.5332C32.9961 37.6536 34.5172 35.7188 36.7812 35.7188C37.3782 35.7188 37.9351 35.8565 38.4364 36.1282C39.3815 36.6404 40.5558 36.6405 41.5011 36.1282C42.0024 35.8565 42.5593 35.7188 43.1562 35.7188C45.4203 35.7188 46.9414 37.6536 46.9414 40.5332C46.9414 43.66 44.1397 47.0078 39.9688 47.0078Z" fill="white"/>
</g>
<defs>
<clipPath id="clip0">
<rect width="34" height="34" fill="white" transform="translate(15 15)"/>
</clipPath>
</defs>
</svg>
