<svg width="25" height="24" viewBox="0 0 25 24" fill="none" xmlns="http://www.w3.org/2000/svg">
<path d="M12.0077 1.71993e-05C10.1708 -0.00117927 8.35816 0.419354 6.7094 1.22921C5.06065 2.03907 3.61983 3.21663 2.49796 4.67117C1.37609 6.1257 0.603129 7.81838 0.238625 9.61876C-0.125879 11.4191 -0.0721908 13.2792 0.395554 15.0556C0.863298 16.8319 1.73261 18.4772 2.93651 19.8646C4.14041 21.252 5.64675 22.3445 7.33947 23.0579C9.03219 23.7713 10.8661 24.0866 12.6999 23.9794C14.5337 23.8723 16.3184 23.3456 17.9165 22.4399L22.4285 23.9435C22.551 23.9827 22.6791 24.0018 22.8077 23.9999C22.9977 23.9997 23.185 23.9544 23.3541 23.8678C23.5232 23.7811 23.6694 23.6555 23.7804 23.5013C23.8915 23.3471 23.9644 23.1687 23.993 22.9808C24.0217 22.793 24.0053 22.601 23.9453 22.4207L22.4477 17.9087C23.4849 16.0841 24.0248 14.0191 24.0134 11.9203C24.002 9.82152 23.4396 7.76252 22.3826 5.9493C21.3256 4.13608 19.8109 2.63222 17.9902 1.58816C16.1695 0.544107 14.1066 -0.00353793 12.0077 1.71993e-05ZM19.9913 18.1439L20.9105 20.9039L18.1505 19.9847C17.9822 19.927 17.803 19.9079 17.6263 19.9286C17.4495 19.9494 17.2797 20.0096 17.1293 20.1047C15.1279 21.3713 12.7297 21.8554 10.3937 21.4643C8.05766 21.0733 5.94788 19.8345 4.46813 17.9851C2.98837 16.1357 2.24257 13.8056 2.37346 11.4407C2.50435 9.07574 3.50274 6.84215 5.17754 5.16734C6.85235 3.49254 9.08595 2.49415 11.4509 2.36326C13.8158 2.23237 16.1459 2.97817 17.9953 4.45793C19.8447 5.93768 21.0835 8.04746 21.4746 10.3835C21.8656 12.7195 21.3815 15.1177 20.1149 17.1191C20.0193 17.27 19.9587 17.4402 19.9373 17.6175C19.9159 17.7948 19.9343 17.9747 19.9913 18.1439Z" fill="#70778F"/>
</svg>
