<svg width="64" height="64" viewBox="0 0 64 64" fill="none" xmlns="http://www.w3.org/2000/svg">
<circle cx="32" cy="32" r="32" fill="#FFA87D"/>
<g clip-path="url(#clip0)">
<path d="M41.6686 40.0491C41.8773 38.8772 41.9846 37.6118 41.9846 36.268C41.9846 34.9205 41.8767 33.6518 41.6669 32.4771C41.6646 32.461 41.6626 32.4451 41.659 32.4291C41.2979 30.4377 40.6406 28.7201 39.7074 27.3588C39.1642 26.5662 38.5376 25.8956 37.8298 25.3483C39.6054 23.7207 40.6433 21.3981 40.6433 18.9696C40.6433 18.6028 40.3458 18.3053 39.979 18.3053C38.1144 18.3053 36.3446 18.9128 34.8966 19.9656C34.6178 18.1662 33.7806 16.5064 32.4683 15.1945C32.2087 14.9352 31.7882 14.9351 31.5289 15.1946C30.2172 16.5064 29.3803 18.1656 29.1019 19.9645C27.6542 18.9125 25.8848 18.3053 24.0205 18.3053C23.6537 18.3053 23.3562 18.6027 23.3562 18.9696C23.3562 21.398 24.3943 23.7205 26.1701 25.3484C25.4623 25.8956 24.8357 26.5662 24.2925 27.3588C23.3599 28.7194 22.7027 30.4356 22.3414 32.4257C22.3369 32.4455 22.3342 32.4653 22.3316 32.4855C22.1227 33.6579 22.0154 34.9236 22.0154 36.268C22.0154 37.6146 22.1231 38.8824 22.3326 40.0564C22.3349 40.0728 22.3371 40.0891 22.3406 40.1052C22.7017 42.0971 23.3591 43.8151 24.2925 45.1767C26.0315 47.7137 28.6247 49 31.9999 49C35.3752 49 37.9684 47.7137 39.7073 45.1767C40.6397 43.8166 41.2968 42.1009 41.6582 40.1116C41.663 40.0909 41.6659 40.0701 41.6686 40.0491ZM40.656 36.268C40.656 37.0615 40.6157 37.8226 40.5389 38.5502L38.2563 36.2677L40.5388 33.985C40.6157 34.7128 40.656 35.4742 40.656 36.268ZM40.2915 32.3533L37.317 35.3281L32.9387 30.95L37.2729 26.6158C37.7713 27.0382 38.2183 27.5361 38.6117 28.1099C39.3918 29.248 39.9556 30.6839 40.2915 32.3533ZM36.3775 36.2678L31.9993 40.6463L27.621 36.2677L31.9992 31.8895L36.3775 36.2678ZM31.5166 24.8747C31.5169 24.8747 31.5173 24.8748 31.5177 24.8748C31.5185 24.8748 31.5193 24.8746 31.5201 24.8746C31.6779 24.8677 31.8377 24.8639 32 24.8639C33.5981 24.8639 34.9887 25.1938 36.1628 25.8471L31.9993 30.0106L27.8363 25.8477C28.8905 25.2608 30.1196 24.9352 31.5166 24.8747ZM36.669 24.5998C35.7154 24.0935 34.6454 23.7671 33.4628 23.6223C34.5948 21.4111 36.7987 19.9087 39.2803 19.6689C39.0943 21.5821 38.1534 23.3655 36.669 24.5998ZM31.9988 16.6497C33.0283 17.8924 33.6109 19.4254 33.6666 21.0505C32.993 21.7683 32.4374 22.6055 32.0372 23.5357C32.0248 23.5357 32.0125 23.5353 32.0001 23.5353C31.9875 23.5353 31.9751 23.5357 31.9626 23.5357C31.5621 22.6049 31.0063 21.7675 30.3323 21.0493C30.3874 19.4248 30.9697 17.8921 31.9988 16.6497ZM24.7194 19.6689C27.2012 19.9087 29.405 21.4109 30.5368 23.6224C29.3544 23.7672 28.2845 24.0935 27.3309 24.5998C25.8463 23.3652 24.9054 21.5818 24.7194 19.6689ZM25.3883 28.1099C25.7814 27.5363 26.228 27.0389 26.726 26.6166L31.0597 30.9502L26.6816 35.3283L23.7082 32.3546C24.0441 30.6846 24.6081 29.2482 25.3883 28.1099ZM23.344 36.268C23.344 35.4746 23.3843 34.7137 23.461 33.9863L25.7423 36.2678L23.4609 38.5491C23.3843 37.8218 23.344 37.0611 23.344 36.268ZM23.7081 40.1805L26.6816 37.207L31.0599 41.5857L26.7268 45.9193C26.2286 45.4968 25.7816 44.9991 25.3883 44.4255C24.608 43.287 24.044 41.8507 23.7081 40.1805ZM27.8369 46.688L31.9993 42.5253L36.1622 46.6885C34.9881 47.3416 33.5978 47.6713 32 47.6713C30.4018 47.6714 29.0111 47.3414 27.8369 46.688ZM38.6117 44.4255C38.2182 44.9996 37.7711 45.4974 37.2724 45.9199L32.9387 41.5859L37.317 37.2071L40.2916 40.1817C39.9557 41.8514 39.3919 43.2874 38.6117 44.4255Z" fill="white"/>
</g>
<defs>
<clipPath id="clip0">
<rect width="34" height="34" fill="white" transform="translate(15 15)"/>
</clipPath>
</defs>
</svg>
